<mxfile host="app.diagrams.net" modified="2022-09-01T18:09:32.057Z" agent="5.0 (Windows NT 10.0; Win64; x64) AppleWebKit/537.36 (KHTML, like Gecko) Chrome/104.0.0.0 Safari/537.36" etag="OvC5uiSFLwxahA8zebqK" version="20.2.7" type="github">
  <diagram id="e1zUzhsnCRrdWpLBbAli" name="Page-1">
    <mxGraphModel dx="921" dy="1693" grid="1" gridSize="10" guides="1" tooltips="1" connect="1" arrows="1" fold="1" page="1" pageScale="1" pageWidth="850" pageHeight="1100" math="0" shadow="0">
      <root>
        <mxCell id="0" />
        <mxCell id="1" parent="0" />
        <mxCell id="tXfOHVA1oxOeaPH2mBL1-1" value="EMPLOYEES" style="rounded=0;whiteSpace=wrap;html=1;" parent="1" vertex="1">
          <mxGeometry x="250" y="170" width="120" height="60" as="geometry" />
        </mxCell>
        <mxCell id="tXfOHVA1oxOeaPH2mBL1-3" value="employee number" style="ellipse;whiteSpace=wrap;html=1;align=center;fontStyle=4;" parent="1" vertex="1">
          <mxGeometry x="390" y="95" width="100" height="40" as="geometry" />
        </mxCell>
        <mxCell id="tXfOHVA1oxOeaPH2mBL1-5" value="email" style="ellipse;whiteSpace=wrap;html=1;align=center;" parent="1" vertex="1">
          <mxGeometry x="180" y="60" width="100" height="40" as="geometry" />
        </mxCell>
        <mxCell id="tXfOHVA1oxOeaPH2mBL1-6" value="address" style="ellipse;whiteSpace=wrap;html=1;align=center;" parent="1" vertex="1">
          <mxGeometry x="140" y="110" width="100" height="35" as="geometry" />
        </mxCell>
        <mxCell id="tXfOHVA1oxOeaPH2mBL1-7" value="SALESPERSONS" style="whiteSpace=wrap;html=1;align=center;" parent="1" vertex="1">
          <mxGeometry x="150" y="310" width="100" height="40" as="geometry" />
        </mxCell>
        <mxCell id="tXfOHVA1oxOeaPH2mBL1-8" value="MARKETERS" style="whiteSpace=wrap;html=1;align=center;" parent="1" vertex="1">
          <mxGeometry x="360" y="310" width="100" height="40" as="geometry" />
        </mxCell>
        <mxCell id="tXfOHVA1oxOeaPH2mBL1-9" value="D" style="ellipse;whiteSpace=wrap;html=1;aspect=fixed;" parent="1" vertex="1">
          <mxGeometry x="300" y="260" width="20" height="20" as="geometry" />
        </mxCell>
        <mxCell id="tXfOHVA1oxOeaPH2mBL1-11" value="" style="endArrow=none;html=1;rounded=0;entryX=0;entryY=0.5;entryDx=0;entryDy=0;exitX=0.5;exitY=0;exitDx=0;exitDy=0;" parent="1" source="tXfOHVA1oxOeaPH2mBL1-7" target="tXfOHVA1oxOeaPH2mBL1-9" edge="1">
          <mxGeometry width="50" height="50" relative="1" as="geometry">
            <mxPoint x="250" y="330" as="sourcePoint" />
            <mxPoint x="300" y="280" as="targetPoint" />
            <Array as="points">
              <mxPoint x="200" y="270" />
            </Array>
          </mxGeometry>
        </mxCell>
        <mxCell id="tXfOHVA1oxOeaPH2mBL1-12" value="" style="endArrow=none;html=1;rounded=0;entryX=1;entryY=0.5;entryDx=0;entryDy=0;exitX=0.5;exitY=0;exitDx=0;exitDy=0;" parent="1" source="tXfOHVA1oxOeaPH2mBL1-8" target="tXfOHVA1oxOeaPH2mBL1-9" edge="1">
          <mxGeometry width="50" height="50" relative="1" as="geometry">
            <mxPoint x="250" y="330" as="sourcePoint" />
            <mxPoint x="300" y="280" as="targetPoint" />
            <Array as="points">
              <mxPoint x="410" y="270" />
            </Array>
          </mxGeometry>
        </mxCell>
        <mxCell id="tXfOHVA1oxOeaPH2mBL1-14" value="gender" style="ellipse;whiteSpace=wrap;html=1;align=center;" parent="1" vertex="1">
          <mxGeometry x="120" y="150" width="100" height="40" as="geometry" />
        </mxCell>
        <mxCell id="tXfOHVA1oxOeaPH2mBL1-15" value="phone number" style="ellipse;whiteSpace=wrap;html=1;align=center;" parent="1" vertex="1">
          <mxGeometry x="270" y="30" width="100" height="40" as="geometry" />
        </mxCell>
        <mxCell id="tXfOHVA1oxOeaPH2mBL1-16" value="emergency contacts" style="ellipse;shape=doubleEllipse;margin=3;whiteSpace=wrap;html=1;align=center;" parent="1" vertex="1">
          <mxGeometry x="110" y="200" width="100" height="40" as="geometry" />
        </mxCell>
        <mxCell id="tXfOHVA1oxOeaPH2mBL1-17" value="date of birth" style="ellipse;whiteSpace=wrap;html=1;align=center;" parent="1" vertex="1">
          <mxGeometry x="370" y="50" width="100" height="40" as="geometry" />
        </mxCell>
        <mxCell id="tXfOHVA1oxOeaPH2mBL1-18" value="CHILDREN" style="whiteSpace=wrap;html=1;align=center;" parent="1" vertex="1">
          <mxGeometry x="660" y="107.5" width="100" height="40" as="geometry" />
        </mxCell>
        <mxCell id="tXfOHVA1oxOeaPH2mBL1-20" value="HAS" style="shape=rhombus;perimeter=rhombusPerimeter;whiteSpace=wrap;html=1;align=center;" parent="1" vertex="1">
          <mxGeometry x="470" y="170" width="120" height="60" as="geometry" />
        </mxCell>
        <mxCell id="tXfOHVA1oxOeaPH2mBL1-21" value="" style="endArrow=none;html=1;rounded=0;entryX=0;entryY=0.5;entryDx=0;entryDy=0;exitX=1;exitY=0.5;exitDx=0;exitDy=0;" parent="1" source="tXfOHVA1oxOeaPH2mBL1-1" target="tXfOHVA1oxOeaPH2mBL1-20" edge="1">
          <mxGeometry relative="1" as="geometry">
            <mxPoint x="370" y="200" as="sourcePoint" />
            <mxPoint x="590" y="230" as="targetPoint" />
          </mxGeometry>
        </mxCell>
        <mxCell id="tXfOHVA1oxOeaPH2mBL1-22" value="" style="endArrow=none;html=1;rounded=0;entryX=0.5;entryY=1;entryDx=0;entryDy=0;exitX=1;exitY=0.5;exitDx=0;exitDy=0;" parent="1" source="tXfOHVA1oxOeaPH2mBL1-20" target="tXfOHVA1oxOeaPH2mBL1-18" edge="1">
          <mxGeometry relative="1" as="geometry">
            <mxPoint x="470" y="300" as="sourcePoint" />
            <mxPoint x="630" y="300" as="targetPoint" />
            <Array as="points">
              <mxPoint x="710" y="200" />
            </Array>
          </mxGeometry>
        </mxCell>
        <mxCell id="tXfOHVA1oxOeaPH2mBL1-23" value="" style="endArrow=none;html=1;rounded=0;entryX=0;entryY=0.5;entryDx=0;entryDy=0;exitX=0.5;exitY=0;exitDx=0;exitDy=0;" parent="1" source="tXfOHVA1oxOeaPH2mBL1-1" target="tXfOHVA1oxOeaPH2mBL1-3" edge="1">
          <mxGeometry relative="1" as="geometry">
            <mxPoint x="380" y="210" as="sourcePoint" />
            <mxPoint x="480" y="210" as="targetPoint" />
          </mxGeometry>
        </mxCell>
        <mxCell id="tXfOHVA1oxOeaPH2mBL1-26" value="" style="endArrow=none;html=1;rounded=0;entryX=0.5;entryY=0;entryDx=0;entryDy=0;exitX=0;exitY=0.5;exitDx=0;exitDy=0;" parent="1" source="tXfOHVA1oxOeaPH2mBL1-17" target="tXfOHVA1oxOeaPH2mBL1-1" edge="1">
          <mxGeometry relative="1" as="geometry">
            <mxPoint x="340" y="200" as="sourcePoint" />
            <mxPoint x="420" y="145" as="targetPoint" />
          </mxGeometry>
        </mxCell>
        <mxCell id="tXfOHVA1oxOeaPH2mBL1-27" value="" style="endArrow=none;html=1;rounded=0;exitX=0.5;exitY=1;exitDx=0;exitDy=0;entryX=0.5;entryY=0;entryDx=0;entryDy=0;" parent="1" source="tXfOHVA1oxOeaPH2mBL1-15" target="tXfOHVA1oxOeaPH2mBL1-1" edge="1">
          <mxGeometry relative="1" as="geometry">
            <mxPoint x="350" y="210" as="sourcePoint" />
            <mxPoint x="310" y="160" as="targetPoint" />
          </mxGeometry>
        </mxCell>
        <mxCell id="tXfOHVA1oxOeaPH2mBL1-28" value="" style="endArrow=none;html=1;rounded=0;exitX=1;exitY=1;exitDx=0;exitDy=0;" parent="1" source="tXfOHVA1oxOeaPH2mBL1-5" edge="1">
          <mxGeometry relative="1" as="geometry">
            <mxPoint x="360" y="220" as="sourcePoint" />
            <mxPoint x="310" y="170" as="targetPoint" />
          </mxGeometry>
        </mxCell>
        <mxCell id="tXfOHVA1oxOeaPH2mBL1-29" value="" style="endArrow=none;html=1;rounded=0;entryX=0.5;entryY=0;entryDx=0;entryDy=0;exitX=1;exitY=0.5;exitDx=0;exitDy=0;" parent="1" source="tXfOHVA1oxOeaPH2mBL1-6" target="tXfOHVA1oxOeaPH2mBL1-1" edge="1">
          <mxGeometry relative="1" as="geometry">
            <mxPoint x="370" y="230" as="sourcePoint" />
            <mxPoint x="450" y="175" as="targetPoint" />
          </mxGeometry>
        </mxCell>
        <mxCell id="tXfOHVA1oxOeaPH2mBL1-30" value="" style="endArrow=none;html=1;rounded=0;entryX=0;entryY=0.5;entryDx=0;entryDy=0;exitX=1;exitY=0.5;exitDx=0;exitDy=0;" parent="1" source="tXfOHVA1oxOeaPH2mBL1-14" target="tXfOHVA1oxOeaPH2mBL1-1" edge="1">
          <mxGeometry relative="1" as="geometry">
            <mxPoint x="380" y="240" as="sourcePoint" />
            <mxPoint x="460" y="185" as="targetPoint" />
          </mxGeometry>
        </mxCell>
        <mxCell id="tXfOHVA1oxOeaPH2mBL1-31" value="" style="endArrow=none;html=1;rounded=0;entryX=0;entryY=0.5;entryDx=0;entryDy=0;exitX=1;exitY=0.5;exitDx=0;exitDy=0;" parent="1" source="tXfOHVA1oxOeaPH2mBL1-16" target="tXfOHVA1oxOeaPH2mBL1-1" edge="1">
          <mxGeometry relative="1" as="geometry">
            <mxPoint x="390" y="250" as="sourcePoint" />
            <mxPoint x="470" y="195" as="targetPoint" />
          </mxGeometry>
        </mxCell>
        <mxCell id="tXfOHVA1oxOeaPH2mBL1-32" value="" style="endArrow=classic;html=1;rounded=0;exitX=0.5;exitY=0;exitDx=0;exitDy=0;entryX=0.5;entryY=1;entryDx=0;entryDy=0;" parent="1" source="tXfOHVA1oxOeaPH2mBL1-9" target="tXfOHVA1oxOeaPH2mBL1-1" edge="1">
          <mxGeometry width="50" height="50" relative="1" as="geometry">
            <mxPoint x="320" y="330" as="sourcePoint" />
            <mxPoint x="370" y="280" as="targetPoint" />
          </mxGeometry>
        </mxCell>
        <mxCell id="tXfOHVA1oxOeaPH2mBL1-33" value="&quot;S&quot;" style="text;html=1;align=center;verticalAlign=middle;resizable=0;points=[];autosize=1;strokeColor=none;fillColor=none;" parent="1" vertex="1">
          <mxGeometry x="200" y="275" width="40" height="30" as="geometry" />
        </mxCell>
        <mxCell id="tXfOHVA1oxOeaPH2mBL1-34" value="&quot;M&quot;" style="text;html=1;align=center;verticalAlign=middle;resizable=0;points=[];autosize=1;strokeColor=none;fillColor=none;" parent="1" vertex="1">
          <mxGeometry x="410" y="275" width="40" height="30" as="geometry" />
        </mxCell>
        <mxCell id="tXfOHVA1oxOeaPH2mBL1-35" value="1,2" style="text;html=1;align=center;verticalAlign=middle;resizable=0;points=[];autosize=1;strokeColor=none;fillColor=none;" parent="1" vertex="1">
          <mxGeometry x="370" y="175" width="40" height="30" as="geometry" />
        </mxCell>
        <mxCell id="tXfOHVA1oxOeaPH2mBL1-36" value="0,M" style="text;html=1;align=center;verticalAlign=middle;resizable=0;points=[];autosize=1;strokeColor=none;fillColor=none;" parent="1" vertex="1">
          <mxGeometry x="670" y="150" width="40" height="30" as="geometry" />
        </mxCell>
        <mxCell id="rt9gdRumkfvSdle8O5Bu-1" value="Total amt of funds provided" style="ellipse;whiteSpace=wrap;html=1;align=center;" vertex="1" parent="1">
          <mxGeometry x="30" y="400" width="100" height="40" as="geometry" />
        </mxCell>
        <mxCell id="rt9gdRumkfvSdle8O5Bu-2" value="Amount of funds used" style="ellipse;whiteSpace=wrap;html=1;align=center;" vertex="1" parent="1">
          <mxGeometry x="160" y="400" width="100" height="40" as="geometry" />
        </mxCell>
        <mxCell id="rt9gdRumkfvSdle8O5Bu-3" value="" style="endArrow=none;html=1;rounded=0;exitX=0.5;exitY=0;exitDx=0;exitDy=0;entryX=0.5;entryY=1;entryDx=0;entryDy=0;" edge="1" parent="1" source="rt9gdRumkfvSdle8O5Bu-1" target="tXfOHVA1oxOeaPH2mBL1-7">
          <mxGeometry width="50" height="50" relative="1" as="geometry">
            <mxPoint x="400" y="430" as="sourcePoint" />
            <mxPoint x="450" y="380" as="targetPoint" />
          </mxGeometry>
        </mxCell>
        <mxCell id="rt9gdRumkfvSdle8O5Bu-4" value="" style="endArrow=none;html=1;rounded=0;exitX=0.5;exitY=0;exitDx=0;exitDy=0;" edge="1" parent="1" source="rt9gdRumkfvSdle8O5Bu-2">
          <mxGeometry width="50" height="50" relative="1" as="geometry">
            <mxPoint x="90" y="410" as="sourcePoint" />
            <mxPoint x="200" y="350" as="targetPoint" />
          </mxGeometry>
        </mxCell>
        <mxCell id="rt9gdRumkfvSdle8O5Bu-5" value="Amount of funds left" style="ellipse;whiteSpace=wrap;html=1;align=center;dashed=1;" vertex="1" parent="1">
          <mxGeometry x="20" y="310" width="100" height="40" as="geometry" />
        </mxCell>
        <mxCell id="rt9gdRumkfvSdle8O5Bu-6" value="" style="endArrow=none;html=1;rounded=0;exitX=1;exitY=0.5;exitDx=0;exitDy=0;entryX=0;entryY=0.5;entryDx=0;entryDy=0;" edge="1" parent="1" source="rt9gdRumkfvSdle8O5Bu-5" target="tXfOHVA1oxOeaPH2mBL1-7">
          <mxGeometry width="50" height="50" relative="1" as="geometry">
            <mxPoint x="90" y="410" as="sourcePoint" />
            <mxPoint x="210" y="360" as="targetPoint" />
          </mxGeometry>
        </mxCell>
        <mxCell id="rt9gdRumkfvSdle8O5Bu-7" value="Total new customers aquired" style="ellipse;whiteSpace=wrap;html=1;align=center;" vertex="1" parent="1">
          <mxGeometry x="290" y="400" width="100" height="40" as="geometry" />
        </mxCell>
        <mxCell id="rt9gdRumkfvSdle8O5Bu-8" value="Preformance based bonus" style="ellipse;whiteSpace=wrap;html=1;align=center;dashed=1;" vertex="1" parent="1">
          <mxGeometry x="400" y="400" width="100" height="40" as="geometry" />
        </mxCell>
        <mxCell id="rt9gdRumkfvSdle8O5Bu-9" value="" style="endArrow=none;html=1;rounded=0;exitX=0.5;exitY=0;exitDx=0;exitDy=0;entryX=0.5;entryY=1;entryDx=0;entryDy=0;" edge="1" parent="1" source="rt9gdRumkfvSdle8O5Bu-7" target="tXfOHVA1oxOeaPH2mBL1-8">
          <mxGeometry relative="1" as="geometry">
            <mxPoint x="340" y="360" as="sourcePoint" />
            <mxPoint x="500" y="360" as="targetPoint" />
          </mxGeometry>
        </mxCell>
        <mxCell id="rt9gdRumkfvSdle8O5Bu-10" value="" style="endArrow=none;html=1;rounded=0;exitX=0.5;exitY=1;exitDx=0;exitDy=0;entryX=0.5;entryY=0;entryDx=0;entryDy=0;" edge="1" parent="1" source="tXfOHVA1oxOeaPH2mBL1-8" target="rt9gdRumkfvSdle8O5Bu-8">
          <mxGeometry relative="1" as="geometry">
            <mxPoint x="340" y="360" as="sourcePoint" />
            <mxPoint x="500" y="360" as="targetPoint" />
          </mxGeometry>
        </mxCell>
        <mxCell id="rt9gdRumkfvSdle8O5Bu-11" value="employee type" style="ellipse;whiteSpace=wrap;html=1;align=center;" vertex="1" parent="1">
          <mxGeometry x="400" y="140" width="100" height="40" as="geometry" />
        </mxCell>
        <mxCell id="rt9gdRumkfvSdle8O5Bu-12" value="" style="endArrow=none;html=1;rounded=0;exitX=0.5;exitY=0;exitDx=0;exitDy=0;entryX=0;entryY=0.5;entryDx=0;entryDy=0;" edge="1" parent="1" source="tXfOHVA1oxOeaPH2mBL1-1" target="rt9gdRumkfvSdle8O5Bu-11">
          <mxGeometry relative="1" as="geometry">
            <mxPoint x="340" y="260" as="sourcePoint" />
            <mxPoint x="500" y="260" as="targetPoint" />
          </mxGeometry>
        </mxCell>
        <mxCell id="rt9gdRumkfvSdle8O5Bu-13" value="employee type" style="text;html=1;align=center;verticalAlign=middle;resizable=0;points=[];autosize=1;strokeColor=none;fillColor=none;" vertex="1" parent="1">
          <mxGeometry x="310" y="240" width="100" height="30" as="geometry" />
        </mxCell>
        <mxCell id="rt9gdRumkfvSdle8O5Bu-15" value="age" style="ellipse;whiteSpace=wrap;html=1;align=center;dashed=1;" vertex="1" parent="1">
          <mxGeometry x="620" y="-10" width="100" height="40" as="geometry" />
        </mxCell>
        <mxCell id="rt9gdRumkfvSdle8O5Bu-16" value="birth certificate number" style="ellipse;whiteSpace=wrap;html=1;align=center;fontStyle=4;" vertex="1" parent="1">
          <mxGeometry x="540" y="30" width="100" height="40" as="geometry" />
        </mxCell>
        <mxCell id="rt9gdRumkfvSdle8O5Bu-17" value="" style="endArrow=none;html=1;rounded=0;entryX=0.5;entryY=1;entryDx=0;entryDy=0;exitX=0.5;exitY=0;exitDx=0;exitDy=0;" edge="1" parent="1" source="tXfOHVA1oxOeaPH2mBL1-18" target="rt9gdRumkfvSdle8O5Bu-16">
          <mxGeometry relative="1" as="geometry">
            <mxPoint x="340" y="250" as="sourcePoint" />
            <mxPoint x="500" y="250" as="targetPoint" />
          </mxGeometry>
        </mxCell>
        <mxCell id="rt9gdRumkfvSdle8O5Bu-18" value="" style="endArrow=none;html=1;rounded=0;entryX=0.5;entryY=1;entryDx=0;entryDy=0;exitX=0.5;exitY=0;exitDx=0;exitDy=0;" edge="1" parent="1" source="tXfOHVA1oxOeaPH2mBL1-18" target="rt9gdRumkfvSdle8O5Bu-15">
          <mxGeometry relative="1" as="geometry">
            <mxPoint x="710" y="100" as="sourcePoint" />
            <mxPoint x="600" y="80" as="targetPoint" />
          </mxGeometry>
        </mxCell>
        <mxCell id="rt9gdRumkfvSdle8O5Bu-19" value="&lt;span style=&quot;font-size:11.0pt;line-height:107%;&lt;br/&gt;font-family:&amp;quot;Calibri&amp;quot;,sans-serif;mso-ascii-theme-font:minor-latin;mso-fareast-font-family:&lt;br/&gt;Calibri;mso-fareast-theme-font:minor-latin;mso-hansi-theme-font:minor-latin;&lt;br/&gt;mso-bidi-font-family:&amp;quot;Times New Roman&amp;quot;;mso-bidi-theme-font:minor-bidi;&lt;br/&gt;mso-ansi-language:EN-IN;mso-fareast-language:EN-US;mso-bidi-language:AR-SA&quot;&gt;bank&lt;br/&gt;account number&lt;/span&gt;" style="ellipse;whiteSpace=wrap;html=1;align=center;" vertex="1" parent="1">
          <mxGeometry x="730" y="10" width="100" height="40" as="geometry" />
        </mxCell>
        <mxCell id="rt9gdRumkfvSdle8O5Bu-20" value="" style="endArrow=none;html=1;rounded=0;entryX=0.5;entryY=1;entryDx=0;entryDy=0;exitX=0.5;exitY=0;exitDx=0;exitDy=0;" edge="1" parent="1" source="tXfOHVA1oxOeaPH2mBL1-18" target="rt9gdRumkfvSdle8O5Bu-19">
          <mxGeometry relative="1" as="geometry">
            <mxPoint x="720" y="117.5" as="sourcePoint" />
            <mxPoint x="680" y="40" as="targetPoint" />
          </mxGeometry>
        </mxCell>
      </root>
    </mxGraphModel>
  </diagram>
</mxfile>
